<svg width="100%" style="" viewBox="0 0 280 172" fill="none" xmlns="http://www.w3.org/2000/svg">
<ellipse cx="200.593" cy="107.429" rx="73.5" ry="57.3813" transform="rotate(-5.42203 200.593 107.429)" fill="#D04D3A"></ellipse>
<ellipse cx="130" cy="57.5" rx="59" ry="57.5" fill="#D04D3A"></ellipse>
<ellipse cx="59" cy="113" rx="59" ry="52" fill="#4D4C4E"></ellipse>
<ellipse cx="95" cy="79" rx="59" ry="52" fill="#4D4C4E"></ellipse>
<ellipse cx="118" cy="108.5" rx="59" ry="56.5" fill="#4D4C4E"></ellipse>
<path d="M59 90H181.5C202.211 90 219 106.789 219 127.5V142C219 154.703 208.703 165 196 165H59V90Z" fill="#4D4C4E"></path>
<path d="M137.938 136C135.229 136 133.875 134.646 133.875 131.938V123.688C133.875 121.312 134.5 119.25 135.75 117.5L170.375 68.75C171.917 66.5833 173.854 65.5 176.188 65.5H185.375C188.125 65.5 189.5 66.8542 189.5 69.5625V120.5H197.062C199.771 120.5 201.125 121.854 201.125 124.562V131.938C201.125 134.646 199.792 136 197.125 136H189.5V151.438C189.5 154.146 188.146 155.5 185.438 155.5H176.062C173.354 155.5 172 154.146 172 151.438V136H137.938ZM151.312 120.5H172V96.3125C172 94.6458 172.083 92.9792 172.25 91.3125H172L151.312 120.5Z" fill="white"></path>
<path d="M88.875 136C85.5417 136 83.875 134.438 83.875 131.312V51.0625C83.875 47.9375 85.5417 46.375 88.875 46.375H110.125C126.125 46.375 136.917 48.3542 142.5 52.3125C148.125 56.2292 150.938 62.2708 150.938 70.4375C150.938 76.1458 148.833 80.5625 144.625 83.6875C140.458 86.8125 136.417 88.625 132.5 89.125V89.3125C136.292 89.5625 140.75 91.4792 145.875 95.0625C151 98.6458 153.562 103.708 153.562 110.25C153.562 117.917 150.438 124.125 144.188 128.875C137.938 133.625 127.625 136 113.25 136H88.875ZM102.125 120.75H111.25C120.083 120.75 126.083 119.979 129.25 118.438C132.458 116.896 134.062 113.771 134.062 109.062C134.062 104.646 132.208 101.604 128.5 99.9375C124.833 98.2292 119.083 97.375 111.25 97.375H102.125V120.75ZM102.125 82.625H110.312C115.688 82.625 120.708 81.6875 125.375 79.8125C130.083 77.9375 132.438 75.0208 132.438 71.0625C132.438 67.9792 131.125 65.6458 128.5 64.0625C125.917 62.4375 119.854 61.625 110.312 61.625H102.125V82.625Z" fill="white"></path>
<rect x="113" y="128" width="34" height="8" fill="white"></rect>
</svg>