<svg width="100%" style="" viewBox="0 0 560 187" fill="none" xmlns="http://www.w3.org/2000/svg">
<ellipse cx="200.593" cy="107.429" rx="73.5" ry="57.3813" transform="rotate(-5.42203 200.593 107.429)" fill="#D04D3A"></ellipse>
<ellipse cx="130" cy="57.5" rx="59" ry="57.5" fill="#D04D3A"></ellipse>
<ellipse cx="59" cy="113" rx="59" ry="52" fill="#4D4C4E"></ellipse>
<ellipse cx="95" cy="79" rx="59" ry="52" fill="#4D4C4E"></ellipse>
<ellipse cx="118" cy="108.5" rx="59" ry="56.5" fill="#4D4C4E"></ellipse>
<path d="M59 90H181.5C202.211 90 219 106.789 219 127.5V142C219 154.703 208.703 165 196 165H59V90Z" fill="#4D4C4E"></path>
<path d="M137.938 136C135.229 136 133.875 134.646 133.875 131.938V123.688C133.875 121.312 134.5 119.25 135.75 117.5L170.375 68.75C171.917 66.5833 173.854 65.5 176.188 65.5H185.375C188.125 65.5 189.5 66.8542 189.5 69.5625V120.5H197.062C199.771 120.5 201.125 121.854 201.125 124.562V131.938C201.125 134.646 199.792 136 197.125 136H189.5V151.438C189.5 154.146 188.146 155.5 185.438 155.5H176.062C173.354 155.5 172 154.146 172 151.438V136H137.938ZM151.312 120.5H172V96.3125C172 94.6458 172.083 92.9792 172.25 91.3125H172L151.312 120.5Z" fill="white"></path>
<path d="M88.875 136C85.5417 136 83.875 134.438 83.875 131.312V51.0625C83.875 47.9375 85.5417 46.375 88.875 46.375H110.125C126.125 46.375 136.917 48.3542 142.5 52.3125C148.125 56.2292 150.938 62.2708 150.938 70.4375C150.938 76.1458 148.833 80.5625 144.625 83.6875C140.458 86.8125 136.417 88.625 132.5 89.125V89.3125C136.292 89.5625 140.75 91.4792 145.875 95.0625C151 98.6458 153.562 103.708 153.562 110.25C153.562 117.917 150.438 124.125 144.188 128.875C137.938 133.625 127.625 136 113.25 136H88.875ZM102.125 120.75H111.25C120.083 120.75 126.083 119.979 129.25 118.438C132.458 116.896 134.062 113.771 134.062 109.062C134.062 104.646 132.208 101.604 128.5 99.9375C124.833 98.2292 119.083 97.375 111.25 97.375H102.125V120.75ZM102.125 82.625H110.312C115.688 82.625 120.708 81.6875 125.375 79.8125C130.083 77.9375 132.438 75.0208 132.438 71.0625C132.438 67.9792 131.125 65.6458 128.5 64.0625C125.917 62.4375 119.854 61.625 110.312 61.625H102.125V82.625Z" fill="white"></path>
<rect x="113" y="128" width="34" height="8" fill="white"></rect>
<path d="M292.344 108C289.844 108 288.594 106.828 288.594 104.484V44.2969C288.594 41.9531 289.844 40.7812 292.344 40.7812H308.281C320.281 40.7812 328.375 42.2656 332.562 45.2344C336.781 48.1719 338.891 52.7031 338.891 58.8281C338.891 63.1094 337.312 66.4219 334.156 68.7656C331.031 71.1094 328 72.4688 325.062 72.8438V72.9844C327.906 73.1719 331.25 74.6094 335.094 77.2969C338.938 79.9844 340.859 83.7812 340.859 88.6875C340.859 94.4375 338.516 99.0938 333.828 102.656C329.141 106.219 321.406 108 310.625 108H292.344ZM302.281 96.5625H309.125C315.75 96.5625 320.25 95.9844 322.625 94.8281C325.031 93.6719 326.234 91.3281 326.234 87.7969C326.234 84.4844 324.844 82.2031 322.062 80.9531C319.312 79.6719 315 79.0312 309.125 79.0312H302.281V96.5625ZM302.281 67.9688H308.422C312.453 67.9688 316.219 67.2656 319.719 65.8594C323.25 64.4531 325.016 62.2656 325.016 59.2969C325.016 56.9844 324.031 55.2344 322.062 54.0469C320.125 52.8281 315.578 52.2188 308.422 52.2188H302.281V67.9688ZM506.609 93.375C504.578 93.375 503.562 92.3594 503.562 90.3281V84.1406C503.562 82.3594 504.031 80.8125 504.969 79.5L530.938 42.9375C532.094 41.3125 533.547 40.5 535.297 40.5H542.188C544.25 40.5 545.281 41.5156 545.281 43.5469V81.75H550.953C552.984 81.75 554 82.7656 554 84.7969V90.3281C554 92.3594 553 93.375 551 93.375H545.281V104.953C545.281 106.984 544.266 108 542.234 108H535.203C533.172 108 532.156 106.984 532.156 104.953V93.375H506.609ZM516.641 81.75H532.156V63.6094C532.156 62.3594 532.219 61.1094 532.344 59.8594H532.156L516.641 81.75Z" fill="#D04D3A"></path>
<path d="M349.531 94.875C349.531 88.625 352.516 84.0938 358.484 81.2812C364.453 78.4688 371.266 76.9688 378.922 76.7812V74.9062C378.922 72.0312 378.203 70 376.766 68.8125C375.328 67.625 373.328 67.0312 370.766 67.0312C368.953 67.0312 367.344 67.2969 365.938 67.8281C364.562 68.3281 363.359 68.9219 362.328 69.6094C361.328 70.2656 360.422 70.9375 359.609 71.625C358.172 72.875 356.984 72.9375 356.047 71.8125L352.156 67.0312C351.188 65.8438 351.422 64.625 352.859 63.375C353.953 62.4062 355.219 61.5625 356.656 60.8438C358.125 60.125 360.062 59.4531 362.469 58.8281C364.875 58.1719 368 57.8438 371.844 57.8438C378.344 57.8438 383.328 59.3438 386.797 62.3438C390.297 65.3438 392.047 69.7656 392.047 75.6094V105.188C392.047 107.062 391.109 108 389.234 108H381.547C379.859 108 379.016 107.062 379.016 105.188V103.781H378.922C377.078 105.562 374.859 106.875 372.266 107.719C369.703 108.531 367.344 108.938 365.188 108.938C360.062 108.938 356.172 107.688 353.516 105.188C350.859 102.656 349.531 99.2188 349.531 94.875ZM363.406 94.5938C363.406 95.6875 363.625 96.6406 364.062 97.4531C364.5 98.2344 365.188 98.8125 366.125 99.1875C367.062 99.5625 368.109 99.75 369.266 99.75C370.859 99.75 372.406 99.5312 373.906 99.0938C375.406 98.6562 377.078 97.625 378.922 96V85.8281C373.672 86.4219 370.156 87.1875 368.375 88.125C366.594 89.0625 365.312 90.0312 364.531 91.0312C363.781 92.0312 363.406 93.2188 363.406 94.5938ZM403.859 104.719C402.328 103.625 401.906 102.453 402.594 101.203L404.984 96.8438C405.828 95.2812 407.141 95.0938 408.922 96.2812C410.703 97.4688 412.797 98.3438 415.203 98.9062C417.641 99.4688 419.859 99.75 421.859 99.75C423.266 99.75 424.578 99.6094 425.797 99.3281C427.016 99.0469 428.047 98.5 428.891 97.6875C429.734 96.875 430.156 95.6875 430.156 94.125C430.156 93.1875 429.906 92.3906 429.406 91.7344C428.906 91.0781 428.266 90.5781 427.484 90.2344C426.703 89.8906 425.875 89.6094 425 89.3906C423.844 89.1094 422.172 88.6406 419.984 87.9844C417.828 87.3281 415.75 86.5625 413.75 85.6875C412.094 84.9688 410.469 83.9688 408.875 82.6875C407.312 81.375 406.156 79.9219 405.406 78.3281C404.688 76.7344 404.328 74.7656 404.328 72.4219C404.328 69.2656 405.234 66.5 407.047 64.125C408.891 61.75 411.266 60.1094 414.172 59.2031C417.078 58.2969 420.703 57.8438 425.047 57.8438C427.984 57.8438 430.844 58.2656 433.625 59.1094C436.406 59.9531 438.391 60.75 439.578 61.5C441.453 62.6875 441.922 63.9531 440.984 65.2969L438.125 69.4688C437.25 70.7188 435.844 70.8125 433.906 69.75C432.438 68.9375 430.984 68.2812 429.547 67.7812C428.141 67.2812 426.562 67.0312 424.812 67.0312C423.625 67.0312 422.484 67.1562 421.391 67.4062C420.297 67.6562 419.359 68.125 418.578 68.8125C417.828 69.5 417.453 70.4062 417.453 71.5312C417.453 72.7188 417.797 73.6562 418.484 74.3438C419.203 75 420.016 75.4844 420.922 75.7969C421.859 76.1094 422.75 76.4062 423.594 76.6875C425.344 77.25 427.109 77.7969 428.891 78.3281C430.672 78.8281 432.484 79.4375 434.328 80.1562C435.922 80.7812 437.469 81.6719 438.969 82.8281C440.469 83.9844 441.562 85.4531 442.25 87.2344C442.938 89.0156 443.281 91.0469 443.281 93.3281C443.281 96.3594 442.375 99.1719 440.562 101.766C438.75 104.359 436.359 106.203 433.391 107.297C430.422 108.391 426.969 108.938 423.031 108.938C418.625 108.938 414.875 108.625 411.781 108C408.688 107.375 406.047 106.281 403.859 104.719ZM449.375 83.3906C449.375 75.4844 451.344 69.25 455.281 64.6875C459.25 60.125 464.844 57.8438 472.062 57.8438C480.438 57.8438 486.656 60 490.719 64.3125C494.781 68.625 496.812 75.5625 496.812 85.125C496.812 87 495.938 87.9375 494.188 87.9375H463.25C463.75 93.125 465.031 96.3906 467.094 97.7344C469.156 99.0781 471.547 99.75 474.266 99.75C476.859 99.75 478.844 99.4062 480.219 98.7188C481.594 98.0312 482.75 97.0938 483.688 95.9062C484.75 94.5312 486.062 94.3125 487.625 95.25L492.312 98.1094C494.156 99.2344 494.422 100.578 493.109 102.141C491.203 104.422 488.969 106.125 486.406 107.25C483.844 108.375 479.797 108.938 474.266 108.938C465.297 108.938 458.906 106.656 455.094 102.094C451.281 97.5312 449.375 91.2969 449.375 83.3906ZM463.297 78.5625H483.688C483.688 75.1875 482.844 72.4375 481.156 70.3125C479.469 68.1562 476.781 67.0781 473.094 67.0781C470.156 67.0781 467.828 68.1094 466.109 70.1719C464.391 72.2031 463.453 75 463.297 78.5625Z" fill="#4D4C4E"></path>
<path d="M291.118 124.679C289.406 124.679 288.55 123.937 288.55 122.454V118.141C288.55 116.658 289.406 115.916 291.118 115.916H326.304C328.016 115.916 328.872 116.658 328.872 118.141V122.454C328.872 123.937 328.016 124.679 326.304 124.679H313.708V163.117C313.708 164.372 313.138 165 311.997 165H305.425C304.284 165 303.714 164.372 303.714 163.117V124.679H291.118ZM323.737 147.03C323.737 141.257 325.175 136.704 328.05 133.373C330.948 130.041 335.033 128.375 340.304 128.375C346.419 128.375 350.96 129.95 353.927 133.099C356.893 136.248 358.377 141.314 358.377 148.296C358.377 149.666 357.738 150.35 356.46 150.35H333.869C334.234 154.138 335.17 156.523 336.676 157.504C338.182 158.485 339.927 158.976 341.913 158.976C343.807 158.976 345.256 158.725 346.26 158.223C347.264 157.721 348.108 157.036 348.793 156.169C349.568 155.165 350.527 155.005 351.668 155.69L355.091 157.778C356.437 158.599 356.631 159.58 355.673 160.721C354.281 162.387 352.649 163.631 350.778 164.452C348.907 165.274 345.952 165.685 341.913 165.685C335.364 165.685 330.697 164.019 327.913 160.687C325.129 157.356 323.737 152.803 323.737 147.03ZM333.903 143.504H348.793C348.793 141.04 348.176 139.032 346.944 137.48C345.712 135.906 343.75 135.119 341.057 135.119C338.912 135.119 337.212 135.872 335.957 137.378C334.702 138.861 334.017 140.903 333.903 143.504ZM367.892 165C366.523 165 365.838 164.315 365.838 162.946V122.522C365.838 121.496 366.078 120.56 366.557 119.716L369.193 115.095C369.695 114.228 370.288 113.794 370.973 113.794H373.369C374.738 113.794 375.422 114.479 375.422 115.848V162.946C375.422 164.315 374.738 165 373.369 165H367.892ZM382.816 147.03C382.816 141.257 384.253 136.704 387.129 133.373C390.027 130.041 394.111 128.375 399.382 128.375C405.498 128.375 410.039 129.95 413.005 133.099C415.972 136.248 417.455 141.314 417.455 148.296C417.455 149.666 416.816 150.35 415.538 150.35H392.947C393.312 154.138 394.248 156.523 395.754 157.504C397.26 158.485 399.006 158.976 400.991 158.976C402.885 158.976 404.334 158.725 405.338 158.223C406.342 157.721 407.186 157.036 407.871 156.169C408.647 155.165 409.605 155.005 410.746 155.69L414.169 157.778C415.515 158.599 415.709 159.58 414.751 160.721C413.359 162.387 411.727 163.631 409.856 164.452C407.985 165.274 405.03 165.685 400.991 165.685C394.442 165.685 389.776 164.019 386.992 160.687C384.208 157.356 382.816 152.803 382.816 147.03ZM392.982 143.504H407.871C407.871 141.04 407.255 139.032 406.023 137.48C404.79 135.906 402.828 135.119 400.135 135.119C397.99 135.119 396.29 135.872 395.035 137.378C393.78 138.861 393.096 140.903 392.982 143.504ZM423 147.03C423 141.211 424.46 136.647 427.381 133.339C430.302 130.03 434.786 128.375 440.833 128.375C444.37 128.375 447.12 128.843 449.082 129.779C451.045 130.714 452.619 132.084 453.806 133.886C454.513 134.959 454.399 135.803 453.463 136.419L449.835 138.815C448.808 139.5 447.907 139.237 447.131 138.028C446.743 137.435 446.002 136.796 444.906 136.111C443.811 135.427 442.453 135.084 440.833 135.084C438.255 135.084 436.326 135.997 435.048 137.823C433.771 139.625 433.132 142.694 433.132 147.03C433.132 151.366 433.771 154.446 435.048 156.272C436.326 158.074 438.255 158.976 440.833 158.976C442.681 158.976 444.176 158.588 445.317 157.812C446.458 157.036 447.53 156.032 448.534 154.8C449.402 153.75 450.314 153.602 451.273 154.355L454.456 156.854C455.414 157.607 455.471 158.611 454.627 159.866C453.737 161.189 452.22 162.49 450.075 163.768C447.953 165.046 444.872 165.685 440.833 165.685C434.786 165.685 430.302 164.03 427.381 160.721C424.46 157.413 423 152.849 423 147.03ZM460.172 147.03C460.172 141.211 461.667 136.647 464.656 133.339C467.668 130.03 472.141 128.375 478.074 128.375C484.007 128.375 488.468 130.03 491.457 133.339C494.469 136.647 495.975 141.211 495.975 147.03C495.975 152.849 494.469 157.413 491.457 160.721C488.468 164.03 484.007 165.685 478.074 165.685C472.141 165.685 467.668 164.03 464.656 160.721C461.667 157.413 460.172 152.849 460.172 147.03ZM470.304 147.03C470.304 151.366 470.966 154.446 472.289 156.272C473.635 158.074 475.564 158.976 478.074 158.976C480.584 158.976 482.501 158.074 483.824 156.272C485.17 154.446 485.844 151.366 485.844 147.03C485.844 142.694 485.17 139.625 483.824 137.823C482.501 135.997 480.584 135.084 478.074 135.084C475.564 135.084 473.635 135.997 472.289 137.823C470.966 139.625 470.304 142.694 470.304 147.03ZM505.422 165C504.053 165 503.369 164.315 503.369 162.946V131.114C503.369 129.745 504.053 129.06 505.422 129.06H510.83C512.2 129.06 512.884 129.745 512.884 131.114V133.099H513.021C513.683 131.639 514.801 130.486 516.375 129.642C517.95 128.798 519.422 128.375 520.791 128.375C523.529 128.375 525.651 129.014 527.157 130.292C528.686 131.57 529.736 132.996 530.306 134.571H530.443C532.429 131.992 534.22 130.315 535.817 129.539C537.437 128.763 539.502 128.375 542.013 128.375C545.39 128.375 548.231 129.494 550.535 131.73C552.863 133.966 554.027 138.051 554.027 143.984V162.946C554.027 164.315 553.342 165 551.973 165H546.496C545.127 165 544.443 164.315 544.443 162.946V146.448C544.443 141.474 544.1 138.336 543.416 137.035C542.754 135.735 541.568 135.084 539.856 135.084C538.259 135.084 536.798 136.02 535.475 137.891C534.151 139.762 533.49 143.619 533.49 149.46V162.946C533.49 164.315 532.805 165 531.436 165H525.959C524.59 165 523.906 164.315 523.906 162.946V146.448C523.906 141.474 523.563 138.336 522.879 137.035C522.217 135.735 521.03 135.084 519.319 135.084C517.722 135.084 516.261 136.02 514.938 137.891C513.614 139.739 512.953 143.596 512.953 149.46V162.946C512.953 164.315 512.268 165 510.899 165H505.422Z" fill="#4D4C4E"></path>
</svg>